PathFileType	4	(X/Y/Z)	53_2_86_p0_0-376.trc
DataRate	CameraRate	NumFrames	NumMarkers	Units	OrigDataRate	OrigDataStartFrame	OrigNumFrames
59.0	59.0	4	27	m	59.0	0	377
Frame#	Time	RHip			RKnee			RAnkle			RBigToe			RSmallToe			RHeel			LHip			LKnee			LAnkle			LBigToe			LSmallToe			LHeel			Neck			Head			Nose			RShoulder			RElbow			RWrist			RThumb			RIndex			RPinky			LShoulder			LElbow			LWrist			LThumb			LIndex			LPinky			
		X1	Y1	Z1	X2	Y2	Z2	X3	Y3	Z3	X4	Y4	Z4	X5	Y5	Z5	X6	Y6	Z6	X7	Y7	Z7	X8	Y8	Z8	X9	Y9	Z9	X10	Y10	Z10	X11	Y11	Z11	X12	Y12	Z12	X13	Y13	Z13	X14	Y14	Z14	X15	Y15	Z15	X16	Y16	Z16	X17	Y17	Z17	X18	Y18	Z18	X19	Y19	Z19	X20	Y20	Z20	X21	Y21	Z21	X22	Y22	Z22	X23	Y23	Z23	X24	Y24	Z24	X25	Y25	Z25	X26	Y26	Z26	X27	Y27	Z27	
0	0.0	0.4118774724908468	0.634372868084407	0.6618835286436873	0.39442226182161	0.7875737195889072	1.1017652212597113	0.38525011506743745	0.8839865700778287	1.5210903832460265	0.30558038709775814	0.6956443067153641	1.5513111237759127	0.373670447534026	0.7056885655354109	1.556002962500988	0.37002975807965616	0.9482110852789408	1.5621952242784554	0.19943565439246233	0.6642694347343935	0.6544467449366707	0.17903078513495096	0.8034188946630595	1.0880302840044052	0.1694122605328525	0.890199457679402	1.5115916694179465	0.17116763805914284	0.7126011617122919	1.5427145963657445	0.11762850325691014	0.7282050209448772	1.5343083210509199	0.17974580851108815	0.9449589559152989	1.5688088052365263	0.3283160679332439	0.49854938512940766	0.06262516241258936	0.3360195153635166	0.44156476232797937	-0.1663342953797789	0.33724502132968065	0.3868175775733309	-0.035115021838649466	0.4846080687335803	0.5556385787403598	0.16434912425676199	0.5117177675933922	0.5407887765637976	0.44527112918695916	0.3649020931829263	0.4531131802537887	0.6393552132034216	0.2899267997619435	0.3860328325831283	0.6850339718186592	0.2689872034362769	0.422546197568553	0.7045179560597479	0.2704301981558396	0.4540846545258905	0.7178687725600241	0.1689129729146692	0.583674037907347	0.14330693049318544	0.12945477039424377	0.5713520858922194	0.4164488403891458	0.22745332927310757	0.42505220417972045	0.6116354714768878	0.28864540057363164	0.348716727102662	0.6594462314800525	0.3004858233533875	0.35251860698302806	0.6949529158112213	0.2983126305992698	0.4038299075310553	0.7085170090391852
1	0.01694915254237288	0.4119180299366182	0.6343627887193086	0.6622636087873738	0.39348775323887725	0.7848710804860927	1.097114672568221	0.38520440452333443	0.8853054626846205	1.5173967972290132	0.30499924999827915	0.6940364430278968	1.550729232611325	0.36991388508456013	0.7212968620839911	1.5621201819419643	0.3751352823952255	0.9648403914177781	1.56759100004086	0.19962100308261194	0.6640735383437547	0.6547973020739946	0.17917251752487548	0.8021002143565723	1.091864480275805	0.16960944966357094	0.8907781856776512	1.5116656251365028	0.1766352228470822	0.7145448198162917	1.5482816753880815	0.1177082593489902	0.7283530895758675	1.53440850963422	0.17965929393483832	0.9453429171380598	1.5690747695130733	0.3283672901948225	0.49854886848191016	0.06267360445273007	0.3361083651809872	0.44125630939828764	-0.16653976053502764	0.33720893968078036	0.3868135346485581	-0.035048259863788594	0.48720823071706265	0.5411026073587187	0.1691073616173527	0.5118363615017127	0.5408801122795366	0.4450070908284037	0.3649877693689971	0.45320313447609994	0.639482033607351	0.28563746589687156	0.3736387527432449	0.6835718472510374	0.2690126101948547	0.4224505147306429	0.7046289503767311	0.2785691724699325	0.44084418364078387	0.7200745396556353	0.16889857732697552	0.583752770226767	0.14334365716890757	0.12955511793728802	0.5727397682787254	0.42004780686612575	0.22741719807893854	0.4250049294195936	0.6116407072715593	0.2886539009715649	0.3484841046553933	0.6595721551244762	0.3013803465569994	0.3522262779052103	0.6915027173278575	0.2949766860780504	0.41659514726548613	0.7098788082085637
2	0.03389830508474576	0.40863169372581626	0.6492677116394278	0.6632568470066732	0.39428192508239457	0.7863141090066704	1.105658313640427	0.3851869954776675	0.8850724946804096	1.517317703810201	0.3048085190825512	0.6939416612791375	1.5507358582325563	0.37318302711779083	0.7045022321454585	1.5555846912168143	0.37496274506329397	0.9647504018534288	1.5678001368025878	0.19931039858413177	0.6639572247346088	0.6545767791888866	0.17912962252270986	0.8021352296748162	1.0919012902925203	0.1696358415652622	0.8907213094796319	1.511709898499514	0.18074645435943593	0.6983823880357195	1.5420982859505694	0.11804163810874593	0.7269759632096631	1.5387390348032668	0.17960149093474626	0.9452509400582786	1.569062692925382	0.32835499012232366	0.4986109153859948	0.06267544854522823	0.33609197988116646	0.44136153556827723	-0.16650868809584848	0.3336120024330968	0.37587467944913705	-0.03364881744236711	0.4847351076303061	0.5575714563731018	0.1710675761921333	0.5120438893395318	0.5432459637885154	0.4448288232122108	0.3692954491918525	0.4642854041623571	0.637244094094104	0.28916412160150684	0.3729606142025524	0.6855392088507297	0.2799850071027342	0.39809139249585335	0.7040128884217278	0.2857329752583386	0.4155448873877137	0.7198126032100782	0.16889739817044308	0.5837520746453527	0.14332082157138226	0.12642334187633192	0.5602740079909954	0.4196816536455815	0.2277306102122873	0.4250420727508961	0.6115847975851487	0.2965069598497909	0.3613875078909579	0.6606975095435155	0.30547067876232237	0.3640234128966658	0.6929253696565127	0.2996096195023086	0.44128705792894757	0.7130388295114639
3	0.05084745762711865	0.40823132584098865	0.6473087774234377	0.6592380549597612	0.39358512635416465	0.7838378026060749	1.101021090641185	0.3851510711492313	0.8850567446699608	1.5173944031208952	0.30484243954988666	0.6938593860452662	1.5506798676917397	0.3732288446101308	0.7044669172371465	1.5555695712234447	0.3749190286472931	0.9649178124384253	1.5680314945293177	0.19942979162910168	0.663551803019776	0.6546443374084592	0.17928042520058546	0.8018345397048737	1.0919308584760097	0.16966843985953303	0.8908108392144708	1.5117471398836717	0.18048248195356484	0.6991675276085523	1.5376198140559667	0.11774140801986839	0.7282828585131226	1.5343312005580383	0.17982885102048166	0.9456555962253229	1.5691065550098382	0.3283411249177127	0.49868578519269086	0.0627095335616724	0.3360241943544426	0.4413580439737554	-0.1664600721982422	0.33721545799158403	0.386868890869917	-0.03505320961121815	0.4872945927082965	0.5433763653611469	0.17576857974389895	0.512105568364387	0.5429229936103868	0.44907790108425016	0.36880758528575985	0.4649555427615811	0.6403826887766126	0.2898641770309136	0.38561661499351163	0.6843544383568015	0.2824232266958172	0.3998284282474078	0.7071101891454445	0.2935051121028502	0.40320383621055916	0.71859895092787	0.16889028389307587	0.5837313691522207	0.1432506478820558	0.1265145103501058	0.5608647767355409	0.41943576761056484	0.22441602483546802	0.4129984743535945	0.6102863773098667	0.29612470164920796	0.3674912148532144	0.6584132305714488	0.309035041422339	0.374499523661504	0.6942264315382465	0.30356068766384686	0.42647980272293246	0.7073139508970703
